<mxfile host="Electron" modified="2024-05-16T12:22:02.203Z" agent="Mozilla/5.0 (X11; Linux x86_64) AppleWebKit/537.36 (KHTML, like Gecko) draw.io/24.2.5 Chrome/120.0.6099.109 Electron/28.1.0 Safari/537.36" etag="fxSqUOBULzqbwDnTzOo0" version="24.2.5" type="device" pages="2">
  <diagram name="Create Product" id="N-O2gR1D0MxtPehw-nFd">
    <mxGraphModel dx="4663" dy="1199" grid="1" gridSize="10" guides="1" tooltips="1" connect="1" arrows="1" fold="1" page="1" pageScale="1" pageWidth="850" pageHeight="1100" math="0" shadow="0">
      <root>
        <mxCell id="0" />
        <mxCell id="1" parent="0" />
        <mxCell id="NAcMTcLfzNmuCpCZpnSl-12" style="edgeStyle=orthogonalEdgeStyle;rounded=0;orthogonalLoop=1;jettySize=auto;html=1;" parent="1" source="NAcMTcLfzNmuCpCZpnSl-2" target="NAcMTcLfzNmuCpCZpnSl-11" edge="1">
          <mxGeometry relative="1" as="geometry" />
        </mxCell>
        <mxCell id="NAcMTcLfzNmuCpCZpnSl-2" value="" style="sketch=0;points=[[0,0,0],[0.25,0,0],[0.5,0,0],[0.75,0,0],[1,0,0],[0,1,0],[0.25,1,0],[0.5,1,0],[0.75,1,0],[1,1,0],[0,0.25,0],[0,0.5,0],[0,0.75,0],[1,0.25,0],[1,0.5,0],[1,0.75,0]];outlineConnect=0;fontColor=#232F3E;fillColor=#E7157B;strokeColor=#ffffff;dashed=0;verticalLabelPosition=bottom;verticalAlign=top;align=center;html=1;fontSize=12;fontStyle=0;aspect=fixed;shape=mxgraph.aws4.resourceIcon;resIcon=mxgraph.aws4.api_gateway;" parent="1" vertex="1">
          <mxGeometry x="190" y="80" width="78" height="78" as="geometry" />
        </mxCell>
        <mxCell id="NAcMTcLfzNmuCpCZpnSl-3" value="Actor" style="shape=umlActor;verticalLabelPosition=bottom;verticalAlign=top;html=1;outlineConnect=0;" parent="1" vertex="1">
          <mxGeometry x="-416" y="69.5" width="30" height="60" as="geometry" />
        </mxCell>
        <mxCell id="NAcMTcLfzNmuCpCZpnSl-8" value="Negócio" style="text;html=1;align=center;verticalAlign=middle;resizable=0;points=[];autosize=1;strokeColor=none;fillColor=none;" parent="1" vertex="1">
          <mxGeometry x="-436" y="158" width="70" height="30" as="geometry" />
        </mxCell>
        <mxCell id="NAcMTcLfzNmuCpCZpnSl-10" value="Gateway Negócio" style="text;html=1;align=center;verticalAlign=middle;resizable=0;points=[];autosize=1;strokeColor=none;fillColor=none;" parent="1" vertex="1">
          <mxGeometry x="169" y="168" width="120" height="30" as="geometry" />
        </mxCell>
        <mxCell id="NAcMTcLfzNmuCpCZpnSl-11" value="" style="sketch=0;outlineConnect=0;fontColor=#232F3E;gradientColor=none;fillColor=#8C4FFF;strokeColor=none;dashed=0;verticalLabelPosition=bottom;verticalAlign=top;align=center;html=1;fontSize=12;fontStyle=0;aspect=fixed;pointerEvents=1;shape=mxgraph.aws4.network_load_balancer;" parent="1" vertex="1">
          <mxGeometry x="410" y="71" width="78" height="78" as="geometry" />
        </mxCell>
        <mxCell id="NAcMTcLfzNmuCpCZpnSl-17" style="edgeStyle=orthogonalEdgeStyle;rounded=0;orthogonalLoop=1;jettySize=auto;html=1;" parent="1" source="NAcMTcLfzNmuCpCZpnSl-13" target="NAcMTcLfzNmuCpCZpnSl-16" edge="1">
          <mxGeometry relative="1" as="geometry" />
        </mxCell>
        <mxCell id="NAcMTcLfzNmuCpCZpnSl-13" value="" style="sketch=0;points=[[0,0,0],[0.25,0,0],[0.5,0,0],[0.75,0,0],[1,0,0],[0,1,0],[0.25,1,0],[0.5,1,0],[0.75,1,0],[1,1,0],[0,0.25,0],[0,0.5,0],[0,0.75,0],[1,0.25,0],[1,0.5,0],[1,0.75,0]];outlineConnect=0;fontColor=#232F3E;fillColor=#ED7100;strokeColor=#ffffff;dashed=0;verticalLabelPosition=bottom;verticalAlign=top;align=center;html=1;fontSize=12;fontStyle=0;aspect=fixed;shape=mxgraph.aws4.resourceIcon;resIcon=mxgraph.aws4.ecs;" parent="1" vertex="1">
          <mxGeometry x="670" y="62" width="78" height="78" as="geometry" />
        </mxCell>
        <mxCell id="NAcMTcLfzNmuCpCZpnSl-14" style="edgeStyle=orthogonalEdgeStyle;rounded=0;orthogonalLoop=1;jettySize=auto;html=1;entryX=0;entryY=0.5;entryDx=0;entryDy=0;entryPerimeter=0;" parent="1" source="NAcMTcLfzNmuCpCZpnSl-11" target="NAcMTcLfzNmuCpCZpnSl-13" edge="1">
          <mxGeometry relative="1" as="geometry" />
        </mxCell>
        <mxCell id="NAcMTcLfzNmuCpCZpnSl-15" value="Backoffice GO Gin&amp;nbsp;&lt;div&gt;Hexagonal&lt;/div&gt;" style="text;html=1;align=center;verticalAlign=middle;resizable=0;points=[];autosize=1;strokeColor=none;fillColor=none;" parent="1" vertex="1">
          <mxGeometry x="644" y="148" width="130" height="40" as="geometry" />
        </mxCell>
        <mxCell id="NAcMTcLfzNmuCpCZpnSl-16" value="" style="outlineConnect=0;dashed=0;verticalLabelPosition=bottom;verticalAlign=top;align=center;html=1;shape=mxgraph.aws3.dynamo_db;fillColor=#2E73B8;gradientColor=none;" parent="1" vertex="1">
          <mxGeometry x="1019" y="59" width="72" height="81" as="geometry" />
        </mxCell>
        <mxCell id="NAcMTcLfzNmuCpCZpnSl-20" style="edgeStyle=orthogonalEdgeStyle;rounded=0;orthogonalLoop=1;jettySize=auto;html=1;" parent="1" source="NAcMTcLfzNmuCpCZpnSl-18" target="NAcMTcLfzNmuCpCZpnSl-19" edge="1">
          <mxGeometry relative="1" as="geometry" />
        </mxCell>
        <mxCell id="NAcMTcLfzNmuCpCZpnSl-18" value="Dynamo Produtos Cadastrados" style="text;html=1;align=center;verticalAlign=middle;resizable=0;points=[];autosize=1;strokeColor=none;fillColor=none;" parent="1" vertex="1">
          <mxGeometry x="960" y="148" width="190" height="30" as="geometry" />
        </mxCell>
        <mxCell id="NAcMTcLfzNmuCpCZpnSl-19" value="" style="sketch=0;outlineConnect=0;fontColor=#232F3E;gradientColor=none;fillColor=#C925D1;strokeColor=none;dashed=0;verticalLabelPosition=bottom;verticalAlign=top;align=center;html=1;fontSize=12;fontStyle=0;aspect=fixed;pointerEvents=1;shape=mxgraph.aws4.dynamodb_stream;" parent="1" vertex="1">
          <mxGeometry x="1020" y="250" width="78" height="78" as="geometry" />
        </mxCell>
        <mxCell id="NAcMTcLfzNmuCpCZpnSl-21" value="Stream de Produtos Criados" style="text;html=1;align=center;verticalAlign=middle;resizable=0;points=[];autosize=1;strokeColor=none;fillColor=none;" parent="1" vertex="1">
          <mxGeometry x="995" y="198" width="170" height="30" as="geometry" />
        </mxCell>
        <mxCell id="NAcMTcLfzNmuCpCZpnSl-22" value="" style="sketch=0;points=[[0,0,0],[0.25,0,0],[0.5,0,0],[0.75,0,0],[1,0,0],[0,1,0],[0.25,1,0],[0.5,1,0],[0.75,1,0],[1,1,0],[0,0.25,0],[0,0.5,0],[0,0.75,0],[1,0.25,0],[1,0.5,0],[1,0.75,0]];outlineConnect=0;fontColor=#232F3E;fillColor=#ED7100;strokeColor=#ffffff;dashed=0;verticalLabelPosition=bottom;verticalAlign=top;align=center;html=1;fontSize=12;fontStyle=0;aspect=fixed;shape=mxgraph.aws4.resourceIcon;resIcon=mxgraph.aws4.lambda;" parent="1" vertex="1">
          <mxGeometry x="1030" y="472" width="78" height="78" as="geometry" />
        </mxCell>
        <mxCell id="NAcMTcLfzNmuCpCZpnSl-23" style="edgeStyle=orthogonalEdgeStyle;rounded=0;orthogonalLoop=1;jettySize=auto;html=1;entryX=0.5;entryY=0;entryDx=0;entryDy=0;entryPerimeter=0;" parent="1" source="NAcMTcLfzNmuCpCZpnSl-19" target="NAcMTcLfzNmuCpCZpnSl-22" edge="1">
          <mxGeometry relative="1" as="geometry" />
        </mxCell>
        <mxCell id="NAcMTcLfzNmuCpCZpnSl-24" value="Captura Produtos Criados" style="text;html=1;align=center;verticalAlign=middle;resizable=0;points=[];autosize=1;strokeColor=none;fillColor=none;" parent="1" vertex="1">
          <mxGeometry x="1010" y="368" width="160" height="30" as="geometry" />
        </mxCell>
        <mxCell id="NAcMTcLfzNmuCpCZpnSl-25" value="PODERIA USAR UM KINESIS AQUI?" style="text;html=1;align=center;verticalAlign=middle;resizable=0;points=[];autosize=1;strokeColor=none;fillColor=none;" parent="1" vertex="1">
          <mxGeometry x="995" y="408" width="220" height="30" as="geometry" />
        </mxCell>
        <mxCell id="NAcMTcLfzNmuCpCZpnSl-26" value="" style="sketch=0;points=[[0,0,0],[0.25,0,0],[0.5,0,0],[0.75,0,0],[1,0,0],[0,1,0],[0.25,1,0],[0.5,1,0],[0.75,1,0],[1,1,0],[0,0.25,0],[0,0.5,0],[0,0.75,0],[1,0.25,0],[1,0.5,0],[1,0.75,0]];outlineConnect=0;fontColor=#232F3E;fillColor=#E7157B;strokeColor=#ffffff;dashed=0;verticalLabelPosition=bottom;verticalAlign=top;align=center;html=1;fontSize=12;fontStyle=0;aspect=fixed;shape=mxgraph.aws4.resourceIcon;resIcon=mxgraph.aws4.sns;" parent="1" vertex="1">
          <mxGeometry x="730" y="472" width="78" height="78" as="geometry" />
        </mxCell>
        <mxCell id="NAcMTcLfzNmuCpCZpnSl-27" style="edgeStyle=orthogonalEdgeStyle;rounded=0;orthogonalLoop=1;jettySize=auto;html=1;entryX=1;entryY=0.5;entryDx=0;entryDy=0;entryPerimeter=0;" parent="1" source="NAcMTcLfzNmuCpCZpnSl-22" target="NAcMTcLfzNmuCpCZpnSl-26" edge="1">
          <mxGeometry relative="1" as="geometry" />
        </mxCell>
        <mxCell id="NAcMTcLfzNmuCpCZpnSl-28" value="Envia para o SNS&lt;div&gt;Tópico Cadastro de Produtos&lt;/div&gt;" style="text;html=1;align=center;verticalAlign=middle;resizable=0;points=[];autosize=1;strokeColor=none;fillColor=none;" parent="1" vertex="1">
          <mxGeometry x="800" y="453" width="180" height="40" as="geometry" />
        </mxCell>
        <mxCell id="NAcMTcLfzNmuCpCZpnSl-29" value="" style="sketch=0;points=[[0,0,0],[0.25,0,0],[0.5,0,0],[0.75,0,0],[1,0,0],[0,1,0],[0.25,1,0],[0.5,1,0],[0.75,1,0],[1,1,0],[0,0.25,0],[0,0.5,0],[0,0.75,0],[1,0.25,0],[1,0.5,0],[1,0.75,0]];outlineConnect=0;fontColor=#232F3E;fillColor=#E7157B;strokeColor=#ffffff;dashed=0;verticalLabelPosition=bottom;verticalAlign=top;align=center;html=1;fontSize=12;fontStyle=0;aspect=fixed;shape=mxgraph.aws4.resourceIcon;resIcon=mxgraph.aws4.sqs;" parent="1" vertex="1">
          <mxGeometry x="425" y="350" width="78" height="78" as="geometry" />
        </mxCell>
        <mxCell id="NAcMTcLfzNmuCpCZpnSl-30" value="" style="sketch=0;points=[[0,0,0],[0.25,0,0],[0.5,0,0],[0.75,0,0],[1,0,0],[0,1,0],[0.25,1,0],[0.5,1,0],[0.75,1,0],[1,1,0],[0,0.25,0],[0,0.5,0],[0,0.75,0],[1,0.25,0],[1,0.5,0],[1,0.75,0]];outlineConnect=0;fontColor=#232F3E;fillColor=#E7157B;strokeColor=#ffffff;dashed=0;verticalLabelPosition=bottom;verticalAlign=top;align=center;html=1;fontSize=12;fontStyle=0;aspect=fixed;shape=mxgraph.aws4.resourceIcon;resIcon=mxgraph.aws4.sqs;" parent="1" vertex="1">
          <mxGeometry x="425" y="620" width="78" height="78" as="geometry" />
        </mxCell>
        <mxCell id="NAcMTcLfzNmuCpCZpnSl-31" style="edgeStyle=orthogonalEdgeStyle;rounded=0;orthogonalLoop=1;jettySize=auto;html=1;entryX=1;entryY=0.5;entryDx=0;entryDy=0;entryPerimeter=0;" parent="1" source="NAcMTcLfzNmuCpCZpnSl-26" target="NAcMTcLfzNmuCpCZpnSl-29" edge="1">
          <mxGeometry relative="1" as="geometry" />
        </mxCell>
        <mxCell id="NAcMTcLfzNmuCpCZpnSl-32" value="Fila Produtos Disponíveis" style="text;html=1;align=center;verticalAlign=middle;resizable=0;points=[];autosize=1;strokeColor=none;fillColor=none;" parent="1" vertex="1">
          <mxGeometry x="369" y="438" width="160" height="30" as="geometry" />
        </mxCell>
        <mxCell id="NAcMTcLfzNmuCpCZpnSl-33" value="Lambda GO" style="text;html=1;align=center;verticalAlign=middle;resizable=0;points=[];autosize=1;strokeColor=none;fillColor=none;" parent="1" vertex="1">
          <mxGeometry x="1028" y="560" width="90" height="30" as="geometry" />
        </mxCell>
        <mxCell id="NAcMTcLfzNmuCpCZpnSl-34" style="edgeStyle=orthogonalEdgeStyle;rounded=0;orthogonalLoop=1;jettySize=auto;html=1;entryX=1;entryY=0.75;entryDx=0;entryDy=0;entryPerimeter=0;" parent="1" source="NAcMTcLfzNmuCpCZpnSl-26" target="NAcMTcLfzNmuCpCZpnSl-30" edge="1">
          <mxGeometry relative="1" as="geometry" />
        </mxCell>
        <mxCell id="NAcMTcLfzNmuCpCZpnSl-35" value="Fila Auditoria Produtos" style="text;html=1;align=center;verticalAlign=middle;resizable=0;points=[];autosize=1;strokeColor=none;fillColor=none;" parent="1" vertex="1">
          <mxGeometry x="404" y="720" width="140" height="30" as="geometry" />
        </mxCell>
        <mxCell id="NAcMTcLfzNmuCpCZpnSl-36" value="Notificador" style="text;html=1;align=center;verticalAlign=middle;resizable=0;points=[];autosize=1;strokeColor=none;fillColor=none;" parent="1" vertex="1">
          <mxGeometry x="730" y="560" width="80" height="30" as="geometry" />
        </mxCell>
        <mxCell id="NAcMTcLfzNmuCpCZpnSl-42" style="edgeStyle=orthogonalEdgeStyle;rounded=0;orthogonalLoop=1;jettySize=auto;html=1;" parent="1" source="NAcMTcLfzNmuCpCZpnSl-37" target="NAcMTcLfzNmuCpCZpnSl-39" edge="1">
          <mxGeometry relative="1" as="geometry" />
        </mxCell>
        <mxCell id="NAcMTcLfzNmuCpCZpnSl-37" value="Actor" style="shape=umlActor;verticalLabelPosition=bottom;verticalAlign=top;html=1;outlineConnect=0;" parent="1" vertex="1">
          <mxGeometry x="-1090" y="346" width="30" height="60" as="geometry" />
        </mxCell>
        <mxCell id="NAcMTcLfzNmuCpCZpnSl-38" value="Cliente" style="text;html=1;align=center;verticalAlign=middle;resizable=0;points=[];autosize=1;strokeColor=none;fillColor=none;" parent="1" vertex="1">
          <mxGeometry x="-1090" y="432" width="60" height="30" as="geometry" />
        </mxCell>
        <mxCell id="NAcMTcLfzNmuCpCZpnSl-44" style="edgeStyle=orthogonalEdgeStyle;rounded=0;orthogonalLoop=1;jettySize=auto;html=1;" parent="1" source="NAcMTcLfzNmuCpCZpnSl-39" target="NAcMTcLfzNmuCpCZpnSl-43" edge="1">
          <mxGeometry relative="1" as="geometry" />
        </mxCell>
        <mxCell id="NAcMTcLfzNmuCpCZpnSl-39" value="" style="sketch=0;points=[[0,0,0],[0.25,0,0],[0.5,0,0],[0.75,0,0],[1,0,0],[0,1,0],[0.25,1,0],[0.5,1,0],[0.75,1,0],[1,1,0],[0,0.25,0],[0,0.5,0],[0,0.75,0],[1,0.25,0],[1,0.5,0],[1,0.75,0]];outlineConnect=0;fontColor=#232F3E;fillColor=#E7157B;strokeColor=#ffffff;dashed=0;verticalLabelPosition=bottom;verticalAlign=top;align=center;html=1;fontSize=12;fontStyle=0;aspect=fixed;shape=mxgraph.aws4.resourceIcon;resIcon=mxgraph.aws4.api_gateway;" parent="1" vertex="1">
          <mxGeometry x="-910" y="314" width="78" height="78" as="geometry" />
        </mxCell>
        <mxCell id="NAcMTcLfzNmuCpCZpnSl-40" value="Gateway Cliente" style="text;html=1;align=center;verticalAlign=middle;resizable=0;points=[];autosize=1;strokeColor=none;fillColor=none;" parent="1" vertex="1">
          <mxGeometry x="-926" y="402" width="110" height="30" as="geometry" />
        </mxCell>
        <mxCell id="NAcMTcLfzNmuCpCZpnSl-54" style="edgeStyle=orthogonalEdgeStyle;rounded=0;orthogonalLoop=1;jettySize=auto;html=1;" parent="1" source="NAcMTcLfzNmuCpCZpnSl-43" target="NAcMTcLfzNmuCpCZpnSl-51" edge="1">
          <mxGeometry relative="1" as="geometry" />
        </mxCell>
        <mxCell id="NAcMTcLfzNmuCpCZpnSl-43" value="" style="sketch=0;outlineConnect=0;fontColor=#232F3E;gradientColor=none;fillColor=#8C4FFF;strokeColor=none;dashed=0;verticalLabelPosition=bottom;verticalAlign=top;align=center;html=1;fontSize=12;fontStyle=0;aspect=fixed;pointerEvents=1;shape=mxgraph.aws4.network_load_balancer;" parent="1" vertex="1">
          <mxGeometry x="-689" y="304" width="78" height="78" as="geometry" />
        </mxCell>
        <mxCell id="NAcMTcLfzNmuCpCZpnSl-47" style="edgeStyle=orthogonalEdgeStyle;rounded=0;orthogonalLoop=1;jettySize=auto;html=1;" parent="1" source="NAcMTcLfzNmuCpCZpnSl-46" target="NAcMTcLfzNmuCpCZpnSl-29" edge="1">
          <mxGeometry relative="1" as="geometry" />
        </mxCell>
        <mxCell id="NAcMTcLfzNmuCpCZpnSl-46" value="" style="sketch=0;points=[[0,0,0],[0.25,0,0],[0.5,0,0],[0.75,0,0],[1,0,0],[0,1,0],[0.25,1,0],[0.5,1,0],[0.75,1,0],[1,1,0],[0,0.25,0],[0,0.5,0],[0,0.75,0],[1,0.25,0],[1,0.5,0],[1,0.75,0]];outlineConnect=0;fontColor=#232F3E;fillColor=#ED7100;strokeColor=#ffffff;dashed=0;verticalLabelPosition=bottom;verticalAlign=top;align=center;html=1;fontSize=12;fontStyle=0;aspect=fixed;shape=mxgraph.aws4.resourceIcon;resIcon=mxgraph.aws4.lambda;" parent="1" vertex="1">
          <mxGeometry x="10" y="346" width="78" height="78" as="geometry" />
        </mxCell>
        <mxCell id="NAcMTcLfzNmuCpCZpnSl-48" value="Lambda GO Cadastra Produtos Disponíveis" style="text;html=1;align=center;verticalAlign=middle;resizable=0;points=[];autosize=1;strokeColor=none;fillColor=none;" parent="1" vertex="1">
          <mxGeometry x="-92" y="442" width="260" height="30" as="geometry" />
        </mxCell>
        <mxCell id="NAcMTcLfzNmuCpCZpnSl-73" style="edgeStyle=orthogonalEdgeStyle;rounded=0;orthogonalLoop=1;jettySize=auto;html=1;" parent="1" source="NAcMTcLfzNmuCpCZpnSl-49" target="NAcMTcLfzNmuCpCZpnSl-72" edge="1">
          <mxGeometry relative="1" as="geometry" />
        </mxCell>
        <mxCell id="NAcMTcLfzNmuCpCZpnSl-49" value="" style="outlineConnect=0;dashed=0;verticalLabelPosition=bottom;verticalAlign=top;align=center;html=1;shape=mxgraph.aws3.dynamo_db;fillColor=#2E73B8;gradientColor=none;" parent="1" vertex="1">
          <mxGeometry x="24" y="560" width="72" height="81" as="geometry" />
        </mxCell>
        <mxCell id="NAcMTcLfzNmuCpCZpnSl-50" style="edgeStyle=orthogonalEdgeStyle;rounded=0;orthogonalLoop=1;jettySize=auto;html=1;entryX=0.5;entryY=0;entryDx=0;entryDy=0;entryPerimeter=0;" parent="1" source="NAcMTcLfzNmuCpCZpnSl-46" target="NAcMTcLfzNmuCpCZpnSl-49" edge="1">
          <mxGeometry relative="1" as="geometry" />
        </mxCell>
        <mxCell id="NAcMTcLfzNmuCpCZpnSl-52" style="edgeStyle=orthogonalEdgeStyle;rounded=0;orthogonalLoop=1;jettySize=auto;html=1;" parent="1" source="NAcMTcLfzNmuCpCZpnSl-51" target="NAcMTcLfzNmuCpCZpnSl-49" edge="1">
          <mxGeometry relative="1" as="geometry" />
        </mxCell>
        <mxCell id="NAcMTcLfzNmuCpCZpnSl-51" value="" style="sketch=0;points=[[0,0,0],[0.25,0,0],[0.5,0,0],[0.75,0,0],[1,0,0],[0,1,0],[0.25,1,0],[0.5,1,0],[0.75,1,0],[1,1,0],[0,0.25,0],[0,0.5,0],[0,0.75,0],[1,0.25,0],[1,0.5,0],[1,0.75,0]];outlineConnect=0;fontColor=#232F3E;fillColor=#ED7100;strokeColor=#ffffff;dashed=0;verticalLabelPosition=bottom;verticalAlign=top;align=center;html=1;fontSize=12;fontStyle=0;aspect=fixed;shape=mxgraph.aws4.resourceIcon;resIcon=mxgraph.aws4.ecs;" parent="1" vertex="1">
          <mxGeometry x="-440" y="511" width="78" height="78" as="geometry" />
        </mxCell>
        <mxCell id="NAcMTcLfzNmuCpCZpnSl-53" value="API de Produtos Disponiveis&lt;div&gt;Clean Arch&lt;/div&gt;" style="text;html=1;align=center;verticalAlign=middle;resizable=0;points=[];autosize=1;strokeColor=none;fillColor=none;" parent="1" vertex="1">
          <mxGeometry x="-491" y="590" width="180" height="40" as="geometry" />
        </mxCell>
        <mxCell id="NAcMTcLfzNmuCpCZpnSl-55" value="" style="sketch=0;points=[[0,0,0],[0.25,0,0],[0.5,0,0],[0.75,0,0],[1,0,0],[0,1,0],[0.25,1,0],[0.5,1,0],[0.75,1,0],[1,1,0],[0,0.25,0],[0,0.5,0],[0,0.75,0],[1,0.25,0],[1,0.5,0],[1,0.75,0]];outlineConnect=0;fontColor=#232F3E;fillColor=#ED7100;strokeColor=#ffffff;dashed=0;verticalLabelPosition=bottom;verticalAlign=top;align=center;html=1;fontSize=12;fontStyle=0;aspect=fixed;shape=mxgraph.aws4.resourceIcon;resIcon=mxgraph.aws4.lambda;" parent="1" vertex="1">
          <mxGeometry x="300" y="870" width="100" height="100" as="geometry" />
        </mxCell>
        <mxCell id="NAcMTcLfzNmuCpCZpnSl-56" style="edgeStyle=orthogonalEdgeStyle;rounded=0;orthogonalLoop=1;jettySize=auto;html=1;entryX=1;entryY=0.75;entryDx=0;entryDy=0;entryPerimeter=0;" parent="1" source="NAcMTcLfzNmuCpCZpnSl-30" target="NAcMTcLfzNmuCpCZpnSl-55" edge="1">
          <mxGeometry relative="1" as="geometry" />
        </mxCell>
        <mxCell id="NAcMTcLfzNmuCpCZpnSl-64" style="edgeStyle=orthogonalEdgeStyle;rounded=0;orthogonalLoop=1;jettySize=auto;html=1;" parent="1" source="NAcMTcLfzNmuCpCZpnSl-57" target="NAcMTcLfzNmuCpCZpnSl-63" edge="1">
          <mxGeometry relative="1" as="geometry" />
        </mxCell>
        <mxCell id="NAcMTcLfzNmuCpCZpnSl-57" value="Lambda GO Auditoria" style="text;html=1;align=center;verticalAlign=middle;resizable=0;points=[];autosize=1;strokeColor=none;fillColor=none;" parent="1" vertex="1">
          <mxGeometry x="270" y="978" width="140" height="30" as="geometry" />
        </mxCell>
        <mxCell id="NAcMTcLfzNmuCpCZpnSl-63" value="" style="sketch=0;points=[[0,0,0],[0.25,0,0],[0.5,0,0],[0.75,0,0],[1,0,0],[0,1,0],[0.25,1,0],[0.5,1,0],[0.75,1,0],[1,1,0],[0,0.25,0],[0,0.5,0],[0,0.75,0],[1,0.25,0],[1,0.5,0],[1,0.75,0]];outlineConnect=0;fontColor=#232F3E;fillColor=#C925D1;strokeColor=#ffffff;dashed=0;verticalLabelPosition=bottom;verticalAlign=top;align=center;html=1;fontSize=12;fontStyle=0;aspect=fixed;shape=mxgraph.aws4.resourceIcon;resIcon=mxgraph.aws4.documentdb_with_mongodb_compatibility;" parent="1" vertex="1">
          <mxGeometry x="322" y="1140" width="78" height="78" as="geometry" />
        </mxCell>
        <mxCell id="NAcMTcLfzNmuCpCZpnSl-65" value="Salva no banco até ter a confirmação de que foi persistido na base do cliente" style="text;html=1;align=center;verticalAlign=middle;resizable=0;points=[];autosize=1;strokeColor=none;fillColor=none;" parent="1" vertex="1">
          <mxGeometry x="195" y="1068" width="430" height="30" as="geometry" />
        </mxCell>
        <mxCell id="NAcMTcLfzNmuCpCZpnSl-70" style="edgeStyle=orthogonalEdgeStyle;rounded=0;orthogonalLoop=1;jettySize=auto;html=1;" parent="1" source="NAcMTcLfzNmuCpCZpnSl-66" target="NAcMTcLfzNmuCpCZpnSl-2" edge="1">
          <mxGeometry relative="1" as="geometry" />
        </mxCell>
        <mxCell id="NAcMTcLfzNmuCpCZpnSl-66" value="" style="sketch=0;points=[[0,0,0],[0.25,0,0],[0.5,0,0],[0.75,0,0],[1,0,0],[0,1,0],[0.25,1,0],[0.5,1,0],[0.75,1,0],[1,1,0],[0,0.25,0],[0,0.5,0],[0,0.75,0],[1,0.25,0],[1,0.5,0],[1,0.75,0]];outlineConnect=0;fontColor=#232F3E;fillColor=#DD344C;strokeColor=#ffffff;dashed=0;verticalLabelPosition=bottom;verticalAlign=top;align=center;html=1;fontSize=12;fontStyle=0;aspect=fixed;shape=mxgraph.aws4.resourceIcon;resIcon=mxgraph.aws4.cognito;" parent="1" vertex="1">
          <mxGeometry x="-170" y="80" width="78" height="78" as="geometry" />
        </mxCell>
        <mxCell id="NAcMTcLfzNmuCpCZpnSl-69" style="edgeStyle=orthogonalEdgeStyle;rounded=0;orthogonalLoop=1;jettySize=auto;html=1;entryX=0;entryY=0.75;entryDx=0;entryDy=0;entryPerimeter=0;" parent="1" source="NAcMTcLfzNmuCpCZpnSl-3" target="NAcMTcLfzNmuCpCZpnSl-66" edge="1">
          <mxGeometry relative="1" as="geometry" />
        </mxCell>
        <mxCell id="NAcMTcLfzNmuCpCZpnSl-71" value="Autenticação" style="text;html=1;align=center;verticalAlign=middle;resizable=0;points=[];autosize=1;strokeColor=none;fillColor=none;" parent="1" vertex="1">
          <mxGeometry x="-170" y="168" width="90" height="30" as="geometry" />
        </mxCell>
        <mxCell id="NAcMTcLfzNmuCpCZpnSl-72" value="" style="sketch=0;outlineConnect=0;fontColor=#232F3E;gradientColor=none;fillColor=#C925D1;strokeColor=none;dashed=0;verticalLabelPosition=bottom;verticalAlign=top;align=center;html=1;fontSize=12;fontStyle=0;aspect=fixed;pointerEvents=1;shape=mxgraph.aws4.dynamodb_stream;" parent="1" vertex="1">
          <mxGeometry x="-90" y="750" width="78" height="78" as="geometry" />
        </mxCell>
        <mxCell id="NAcMTcLfzNmuCpCZpnSl-76" style="edgeStyle=orthogonalEdgeStyle;rounded=0;orthogonalLoop=1;jettySize=auto;html=1;" parent="1" source="NAcMTcLfzNmuCpCZpnSl-74" target="NAcMTcLfzNmuCpCZpnSl-72" edge="1">
          <mxGeometry relative="1" as="geometry" />
        </mxCell>
        <mxCell id="NAcMTcLfzNmuCpCZpnSl-74" value="" style="sketch=0;points=[[0,0,0],[0.25,0,0],[0.5,0,0],[0.75,0,0],[1,0,0],[0,1,0],[0.25,1,0],[0.5,1,0],[0.75,1,0],[1,1,0],[0,0.25,0],[0,0.5,0],[0,0.75,0],[1,0.25,0],[1,0.5,0],[1,0.75,0]];outlineConnect=0;fontColor=#232F3E;fillColor=#ED7100;strokeColor=#ffffff;dashed=0;verticalLabelPosition=bottom;verticalAlign=top;align=center;html=1;fontSize=12;fontStyle=0;aspect=fixed;shape=mxgraph.aws4.resourceIcon;resIcon=mxgraph.aws4.lambda;" parent="1" vertex="1">
          <mxGeometry x="-280" y="954" width="78" height="78" as="geometry" />
        </mxCell>
        <mxCell id="NAcMTcLfzNmuCpCZpnSl-75" value="Lambda GO Orquestradora" style="text;html=1;align=center;verticalAlign=middle;resizable=0;points=[];autosize=1;strokeColor=none;fillColor=none;" parent="1" vertex="1">
          <mxGeometry x="-325" y="1038" width="170" height="30" as="geometry" />
        </mxCell>
        <mxCell id="NAcMTcLfzNmuCpCZpnSl-77" style="edgeStyle=orthogonalEdgeStyle;rounded=0;orthogonalLoop=1;jettySize=auto;html=1;entryX=0;entryY=0.75;entryDx=0;entryDy=0;entryPerimeter=0;" parent="1" source="NAcMTcLfzNmuCpCZpnSl-74" target="NAcMTcLfzNmuCpCZpnSl-63" edge="1">
          <mxGeometry relative="1" as="geometry" />
        </mxCell>
        <mxCell id="jJldwWL7oWhNjq0IEImi-4" value="Qnd o produto é cadastrado, pega no documentDB a auditoria e manda para o S3" style="edgeLabel;html=1;align=center;verticalAlign=middle;resizable=0;points=[];" vertex="1" connectable="0" parent="NAcMTcLfzNmuCpCZpnSl-77">
          <mxGeometry x="-0.1267" y="1" relative="1" as="geometry">
            <mxPoint as="offset" />
          </mxGeometry>
        </mxCell>
        <mxCell id="NAcMTcLfzNmuCpCZpnSl-79" value="" style="sketch=0;points=[[0,0,0],[0.25,0,0],[0.5,0,0],[0.75,0,0],[1,0,0],[0,1,0],[0.25,1,0],[0.5,1,0],[0.75,1,0],[1,1,0],[0,0.25,0],[0,0.5,0],[0,0.75,0],[1,0.25,0],[1,0.5,0],[1,0.75,0]];outlineConnect=0;fontColor=#232F3E;fillColor=#7AA116;strokeColor=#ffffff;dashed=0;verticalLabelPosition=bottom;verticalAlign=top;align=center;html=1;fontSize=12;fontStyle=0;aspect=fixed;shape=mxgraph.aws4.resourceIcon;resIcon=mxgraph.aws4.glacier;" parent="1" vertex="1">
          <mxGeometry x="-680" y="960" width="78" height="78" as="geometry" />
        </mxCell>
        <mxCell id="NAcMTcLfzNmuCpCZpnSl-80" style="edgeStyle=orthogonalEdgeStyle;rounded=0;orthogonalLoop=1;jettySize=auto;html=1;entryX=1;entryY=0.5;entryDx=0;entryDy=0;entryPerimeter=0;" parent="1" source="NAcMTcLfzNmuCpCZpnSl-74" target="NAcMTcLfzNmuCpCZpnSl-79" edge="1">
          <mxGeometry relative="1" as="geometry" />
        </mxCell>
        <mxCell id="jJldwWL7oWhNjq0IEImi-1" value="&lt;div&gt;Vale usar o ECHO aqui?&lt;/div&gt;&lt;div&gt;Ou mantém o Gin?&lt;/div&gt;&lt;div&gt;Usar o CHI?&lt;/div&gt;" style="text;html=1;align=center;verticalAlign=middle;resizable=0;points=[];autosize=1;strokeColor=none;fillColor=none;" vertex="1" parent="1">
          <mxGeometry x="-590" y="520" width="150" height="60" as="geometry" />
        </mxCell>
        <mxCell id="jJldwWL7oWhNjq0IEImi-2" value="Dynamo Produtos a serem exibidos" style="text;html=1;align=center;verticalAlign=middle;resizable=0;points=[];autosize=1;strokeColor=none;fillColor=none;" vertex="1" parent="1">
          <mxGeometry x="-42" y="650" width="210" height="30" as="geometry" />
        </mxCell>
        <mxCell id="jJldwWL7oWhNjq0IEImi-3" value="Stream para confirmar cadastro de produto" style="text;html=1;align=center;verticalAlign=middle;resizable=0;points=[];autosize=1;strokeColor=none;fillColor=none;" vertex="1" parent="1">
          <mxGeometry x="-176" y="840" width="250" height="30" as="geometry" />
        </mxCell>
      </root>
    </mxGraphModel>
  </diagram>
  <diagram name="Create Product With Saga" id="WSFS86oBhHvzInj0V8Ia">
    <mxGraphModel dx="4663" dy="2299" grid="1" gridSize="10" guides="1" tooltips="1" connect="1" arrows="1" fold="1" page="1" pageScale="1" pageWidth="850" pageHeight="1100" math="0" shadow="0">
      <root>
        <mxCell id="rBMd9Nk1FwRAyWW7uSOI-0" />
        <mxCell id="rBMd9Nk1FwRAyWW7uSOI-1" parent="rBMd9Nk1FwRAyWW7uSOI-0" />
        <mxCell id="rBMd9Nk1FwRAyWW7uSOI-2" style="edgeStyle=orthogonalEdgeStyle;rounded=0;orthogonalLoop=1;jettySize=auto;html=1;" edge="1" parent="rBMd9Nk1FwRAyWW7uSOI-1" source="rBMd9Nk1FwRAyWW7uSOI-3" target="rBMd9Nk1FwRAyWW7uSOI-7">
          <mxGeometry relative="1" as="geometry" />
        </mxCell>
        <mxCell id="rBMd9Nk1FwRAyWW7uSOI-3" value="" style="sketch=0;points=[[0,0,0],[0.25,0,0],[0.5,0,0],[0.75,0,0],[1,0,0],[0,1,0],[0.25,1,0],[0.5,1,0],[0.75,1,0],[1,1,0],[0,0.25,0],[0,0.5,0],[0,0.75,0],[1,0.25,0],[1,0.5,0],[1,0.75,0]];outlineConnect=0;fontColor=#232F3E;fillColor=#E7157B;strokeColor=#ffffff;dashed=0;verticalLabelPosition=bottom;verticalAlign=top;align=center;html=1;fontSize=12;fontStyle=0;aspect=fixed;shape=mxgraph.aws4.resourceIcon;resIcon=mxgraph.aws4.api_gateway;" vertex="1" parent="rBMd9Nk1FwRAyWW7uSOI-1">
          <mxGeometry x="190" y="80" width="78" height="78" as="geometry" />
        </mxCell>
        <mxCell id="rBMd9Nk1FwRAyWW7uSOI-4" value="Actor" style="shape=umlActor;verticalLabelPosition=bottom;verticalAlign=top;html=1;outlineConnect=0;" vertex="1" parent="rBMd9Nk1FwRAyWW7uSOI-1">
          <mxGeometry x="-416" y="69.5" width="30" height="60" as="geometry" />
        </mxCell>
        <mxCell id="rBMd9Nk1FwRAyWW7uSOI-5" value="Negócio" style="text;html=1;align=center;verticalAlign=middle;resizable=0;points=[];autosize=1;strokeColor=none;fillColor=none;" vertex="1" parent="rBMd9Nk1FwRAyWW7uSOI-1">
          <mxGeometry x="-436" y="158" width="70" height="30" as="geometry" />
        </mxCell>
        <mxCell id="rBMd9Nk1FwRAyWW7uSOI-6" value="Gateway Negócio" style="text;html=1;align=center;verticalAlign=middle;resizable=0;points=[];autosize=1;strokeColor=none;fillColor=none;" vertex="1" parent="rBMd9Nk1FwRAyWW7uSOI-1">
          <mxGeometry x="169" y="168" width="120" height="30" as="geometry" />
        </mxCell>
        <mxCell id="rBMd9Nk1FwRAyWW7uSOI-7" value="" style="sketch=0;outlineConnect=0;fontColor=#232F3E;gradientColor=none;fillColor=#8C4FFF;strokeColor=none;dashed=0;verticalLabelPosition=bottom;verticalAlign=top;align=center;html=1;fontSize=12;fontStyle=0;aspect=fixed;pointerEvents=1;shape=mxgraph.aws4.network_load_balancer;" vertex="1" parent="rBMd9Nk1FwRAyWW7uSOI-1">
          <mxGeometry x="410" y="71" width="78" height="78" as="geometry" />
        </mxCell>
        <mxCell id="rBMd9Nk1FwRAyWW7uSOI-8" style="edgeStyle=orthogonalEdgeStyle;rounded=0;orthogonalLoop=1;jettySize=auto;html=1;" edge="1" parent="rBMd9Nk1FwRAyWW7uSOI-1" source="rBMd9Nk1FwRAyWW7uSOI-9" target="rBMd9Nk1FwRAyWW7uSOI-12">
          <mxGeometry relative="1" as="geometry" />
        </mxCell>
        <mxCell id="rBMd9Nk1FwRAyWW7uSOI-9" value="" style="sketch=0;points=[[0,0,0],[0.25,0,0],[0.5,0,0],[0.75,0,0],[1,0,0],[0,1,0],[0.25,1,0],[0.5,1,0],[0.75,1,0],[1,1,0],[0,0.25,0],[0,0.5,0],[0,0.75,0],[1,0.25,0],[1,0.5,0],[1,0.75,0]];outlineConnect=0;fontColor=#232F3E;fillColor=#ED7100;strokeColor=#ffffff;dashed=0;verticalLabelPosition=bottom;verticalAlign=top;align=center;html=1;fontSize=12;fontStyle=0;aspect=fixed;shape=mxgraph.aws4.resourceIcon;resIcon=mxgraph.aws4.ecs;" vertex="1" parent="rBMd9Nk1FwRAyWW7uSOI-1">
          <mxGeometry x="670" y="62" width="78" height="78" as="geometry" />
        </mxCell>
        <mxCell id="rBMd9Nk1FwRAyWW7uSOI-10" style="edgeStyle=orthogonalEdgeStyle;rounded=0;orthogonalLoop=1;jettySize=auto;html=1;entryX=0;entryY=0.5;entryDx=0;entryDy=0;entryPerimeter=0;" edge="1" parent="rBMd9Nk1FwRAyWW7uSOI-1" source="rBMd9Nk1FwRAyWW7uSOI-7" target="rBMd9Nk1FwRAyWW7uSOI-9">
          <mxGeometry relative="1" as="geometry" />
        </mxCell>
        <mxCell id="rBMd9Nk1FwRAyWW7uSOI-11" value="Backoffice GO Gin&amp;nbsp;&lt;div&gt;Hexagonal&lt;/div&gt;" style="text;html=1;align=center;verticalAlign=middle;resizable=0;points=[];autosize=1;strokeColor=none;fillColor=none;" vertex="1" parent="rBMd9Nk1FwRAyWW7uSOI-1">
          <mxGeometry x="644" y="148" width="130" height="40" as="geometry" />
        </mxCell>
        <mxCell id="rBMd9Nk1FwRAyWW7uSOI-12" value="" style="outlineConnect=0;dashed=0;verticalLabelPosition=bottom;verticalAlign=top;align=center;html=1;shape=mxgraph.aws3.dynamo_db;fillColor=#2E73B8;gradientColor=none;" vertex="1" parent="rBMd9Nk1FwRAyWW7uSOI-1">
          <mxGeometry x="1019" y="59" width="72" height="81" as="geometry" />
        </mxCell>
        <mxCell id="rBMd9Nk1FwRAyWW7uSOI-13" style="edgeStyle=orthogonalEdgeStyle;rounded=0;orthogonalLoop=1;jettySize=auto;html=1;" edge="1" parent="rBMd9Nk1FwRAyWW7uSOI-1" source="rBMd9Nk1FwRAyWW7uSOI-14" target="rBMd9Nk1FwRAyWW7uSOI-15">
          <mxGeometry relative="1" as="geometry" />
        </mxCell>
        <mxCell id="rBMd9Nk1FwRAyWW7uSOI-14" value="Dynamo Produtos Cadastrados" style="text;html=1;align=center;verticalAlign=middle;resizable=0;points=[];autosize=1;strokeColor=none;fillColor=none;" vertex="1" parent="rBMd9Nk1FwRAyWW7uSOI-1">
          <mxGeometry x="960" y="148" width="190" height="30" as="geometry" />
        </mxCell>
        <mxCell id="rBMd9Nk1FwRAyWW7uSOI-15" value="" style="sketch=0;outlineConnect=0;fontColor=#232F3E;gradientColor=none;fillColor=#C925D1;strokeColor=none;dashed=0;verticalLabelPosition=bottom;verticalAlign=top;align=center;html=1;fontSize=12;fontStyle=0;aspect=fixed;pointerEvents=1;shape=mxgraph.aws4.dynamodb_stream;" vertex="1" parent="rBMd9Nk1FwRAyWW7uSOI-1">
          <mxGeometry x="1020" y="250" width="78" height="78" as="geometry" />
        </mxCell>
        <mxCell id="rBMd9Nk1FwRAyWW7uSOI-16" value="Stream de Produtos Criados" style="text;html=1;align=center;verticalAlign=middle;resizable=0;points=[];autosize=1;strokeColor=none;fillColor=none;" vertex="1" parent="rBMd9Nk1FwRAyWW7uSOI-1">
          <mxGeometry x="995" y="198" width="170" height="30" as="geometry" />
        </mxCell>
        <mxCell id="rBMd9Nk1FwRAyWW7uSOI-17" value="" style="sketch=0;points=[[0,0,0],[0.25,0,0],[0.5,0,0],[0.75,0,0],[1,0,0],[0,1,0],[0.25,1,0],[0.5,1,0],[0.75,1,0],[1,1,0],[0,0.25,0],[0,0.5,0],[0,0.75,0],[1,0.25,0],[1,0.5,0],[1,0.75,0]];outlineConnect=0;fontColor=#232F3E;fillColor=#ED7100;strokeColor=#ffffff;dashed=0;verticalLabelPosition=bottom;verticalAlign=top;align=center;html=1;fontSize=12;fontStyle=0;aspect=fixed;shape=mxgraph.aws4.resourceIcon;resIcon=mxgraph.aws4.lambda;" vertex="1" parent="rBMd9Nk1FwRAyWW7uSOI-1">
          <mxGeometry x="1030" y="472" width="78" height="78" as="geometry" />
        </mxCell>
        <mxCell id="rBMd9Nk1FwRAyWW7uSOI-18" style="edgeStyle=orthogonalEdgeStyle;rounded=0;orthogonalLoop=1;jettySize=auto;html=1;entryX=0.5;entryY=0;entryDx=0;entryDy=0;entryPerimeter=0;" edge="1" parent="rBMd9Nk1FwRAyWW7uSOI-1" source="rBMd9Nk1FwRAyWW7uSOI-15" target="rBMd9Nk1FwRAyWW7uSOI-17">
          <mxGeometry relative="1" as="geometry" />
        </mxCell>
        <mxCell id="rBMd9Nk1FwRAyWW7uSOI-19" value="Captura Produtos Criados" style="text;html=1;align=center;verticalAlign=middle;resizable=0;points=[];autosize=1;strokeColor=none;fillColor=none;" vertex="1" parent="rBMd9Nk1FwRAyWW7uSOI-1">
          <mxGeometry x="1010" y="368" width="160" height="30" as="geometry" />
        </mxCell>
        <mxCell id="rBMd9Nk1FwRAyWW7uSOI-20" value="PODERIA USAR UM KINESIS AQUI?" style="text;html=1;align=center;verticalAlign=middle;resizable=0;points=[];autosize=1;strokeColor=none;fillColor=none;" vertex="1" parent="rBMd9Nk1FwRAyWW7uSOI-1">
          <mxGeometry x="995" y="408" width="220" height="30" as="geometry" />
        </mxCell>
        <mxCell id="rBMd9Nk1FwRAyWW7uSOI-21" value="" style="sketch=0;points=[[0,0,0],[0.25,0,0],[0.5,0,0],[0.75,0,0],[1,0,0],[0,1,0],[0.25,1,0],[0.5,1,0],[0.75,1,0],[1,1,0],[0,0.25,0],[0,0.5,0],[0,0.75,0],[1,0.25,0],[1,0.5,0],[1,0.75,0]];outlineConnect=0;fontColor=#232F3E;fillColor=#E7157B;strokeColor=#ffffff;dashed=0;verticalLabelPosition=bottom;verticalAlign=top;align=center;html=1;fontSize=12;fontStyle=0;aspect=fixed;shape=mxgraph.aws4.resourceIcon;resIcon=mxgraph.aws4.sns;" vertex="1" parent="rBMd9Nk1FwRAyWW7uSOI-1">
          <mxGeometry x="730" y="472" width="78" height="78" as="geometry" />
        </mxCell>
        <mxCell id="rBMd9Nk1FwRAyWW7uSOI-22" style="edgeStyle=orthogonalEdgeStyle;rounded=0;orthogonalLoop=1;jettySize=auto;html=1;entryX=1;entryY=0.5;entryDx=0;entryDy=0;entryPerimeter=0;" edge="1" parent="rBMd9Nk1FwRAyWW7uSOI-1" source="rBMd9Nk1FwRAyWW7uSOI-17" target="rBMd9Nk1FwRAyWW7uSOI-21">
          <mxGeometry relative="1" as="geometry" />
        </mxCell>
        <mxCell id="rBMd9Nk1FwRAyWW7uSOI-23" value="Envia para o SNS&lt;div&gt;Tópico Cadastro de Produtos&lt;/div&gt;" style="text;html=1;align=center;verticalAlign=middle;resizable=0;points=[];autosize=1;strokeColor=none;fillColor=none;" vertex="1" parent="rBMd9Nk1FwRAyWW7uSOI-1">
          <mxGeometry x="800" y="453" width="180" height="40" as="geometry" />
        </mxCell>
        <mxCell id="rBMd9Nk1FwRAyWW7uSOI-24" value="" style="sketch=0;points=[[0,0,0],[0.25,0,0],[0.5,0,0],[0.75,0,0],[1,0,0],[0,1,0],[0.25,1,0],[0.5,1,0],[0.75,1,0],[1,1,0],[0,0.25,0],[0,0.5,0],[0,0.75,0],[1,0.25,0],[1,0.5,0],[1,0.75,0]];outlineConnect=0;fontColor=#232F3E;fillColor=#E7157B;strokeColor=#ffffff;dashed=0;verticalLabelPosition=bottom;verticalAlign=top;align=center;html=1;fontSize=12;fontStyle=0;aspect=fixed;shape=mxgraph.aws4.resourceIcon;resIcon=mxgraph.aws4.sqs;" vertex="1" parent="rBMd9Nk1FwRAyWW7uSOI-1">
          <mxGeometry x="425" y="350" width="78" height="78" as="geometry" />
        </mxCell>
        <mxCell id="rBMd9Nk1FwRAyWW7uSOI-25" value="" style="sketch=0;points=[[0,0,0],[0.25,0,0],[0.5,0,0],[0.75,0,0],[1,0,0],[0,1,0],[0.25,1,0],[0.5,1,0],[0.75,1,0],[1,1,0],[0,0.25,0],[0,0.5,0],[0,0.75,0],[1,0.25,0],[1,0.5,0],[1,0.75,0]];outlineConnect=0;fontColor=#232F3E;fillColor=#E7157B;strokeColor=#ffffff;dashed=0;verticalLabelPosition=bottom;verticalAlign=top;align=center;html=1;fontSize=12;fontStyle=0;aspect=fixed;shape=mxgraph.aws4.resourceIcon;resIcon=mxgraph.aws4.sqs;" vertex="1" parent="rBMd9Nk1FwRAyWW7uSOI-1">
          <mxGeometry x="425" y="620" width="78" height="78" as="geometry" />
        </mxCell>
        <mxCell id="rBMd9Nk1FwRAyWW7uSOI-26" style="edgeStyle=orthogonalEdgeStyle;rounded=0;orthogonalLoop=1;jettySize=auto;html=1;entryX=1;entryY=0.5;entryDx=0;entryDy=0;entryPerimeter=0;" edge="1" parent="rBMd9Nk1FwRAyWW7uSOI-1" source="rBMd9Nk1FwRAyWW7uSOI-21" target="rBMd9Nk1FwRAyWW7uSOI-24">
          <mxGeometry relative="1" as="geometry" />
        </mxCell>
        <mxCell id="rBMd9Nk1FwRAyWW7uSOI-27" value="Fila Produtos Disponíveis" style="text;html=1;align=center;verticalAlign=middle;resizable=0;points=[];autosize=1;strokeColor=none;fillColor=none;" vertex="1" parent="rBMd9Nk1FwRAyWW7uSOI-1">
          <mxGeometry x="369" y="438" width="160" height="30" as="geometry" />
        </mxCell>
        <mxCell id="rBMd9Nk1FwRAyWW7uSOI-28" value="Lambda GO" style="text;html=1;align=center;verticalAlign=middle;resizable=0;points=[];autosize=1;strokeColor=none;fillColor=none;" vertex="1" parent="rBMd9Nk1FwRAyWW7uSOI-1">
          <mxGeometry x="1028" y="560" width="90" height="30" as="geometry" />
        </mxCell>
        <mxCell id="rBMd9Nk1FwRAyWW7uSOI-29" style="edgeStyle=orthogonalEdgeStyle;rounded=0;orthogonalLoop=1;jettySize=auto;html=1;entryX=1;entryY=0.75;entryDx=0;entryDy=0;entryPerimeter=0;" edge="1" parent="rBMd9Nk1FwRAyWW7uSOI-1" source="rBMd9Nk1FwRAyWW7uSOI-21" target="rBMd9Nk1FwRAyWW7uSOI-25">
          <mxGeometry relative="1" as="geometry" />
        </mxCell>
        <mxCell id="rBMd9Nk1FwRAyWW7uSOI-30" value="Fila Auditoria Produtos" style="text;html=1;align=center;verticalAlign=middle;resizable=0;points=[];autosize=1;strokeColor=none;fillColor=none;" vertex="1" parent="rBMd9Nk1FwRAyWW7uSOI-1">
          <mxGeometry x="404" y="720" width="140" height="30" as="geometry" />
        </mxCell>
        <mxCell id="rBMd9Nk1FwRAyWW7uSOI-31" value="Notificador" style="text;html=1;align=center;verticalAlign=middle;resizable=0;points=[];autosize=1;strokeColor=none;fillColor=none;" vertex="1" parent="rBMd9Nk1FwRAyWW7uSOI-1">
          <mxGeometry x="730" y="560" width="80" height="30" as="geometry" />
        </mxCell>
        <mxCell id="rBMd9Nk1FwRAyWW7uSOI-32" style="edgeStyle=orthogonalEdgeStyle;rounded=0;orthogonalLoop=1;jettySize=auto;html=1;" edge="1" parent="rBMd9Nk1FwRAyWW7uSOI-1" source="rBMd9Nk1FwRAyWW7uSOI-33" target="rBMd9Nk1FwRAyWW7uSOI-36">
          <mxGeometry relative="1" as="geometry" />
        </mxCell>
        <mxCell id="rBMd9Nk1FwRAyWW7uSOI-33" value="Actor" style="shape=umlActor;verticalLabelPosition=bottom;verticalAlign=top;html=1;outlineConnect=0;" vertex="1" parent="rBMd9Nk1FwRAyWW7uSOI-1">
          <mxGeometry x="-1090" y="346" width="30" height="60" as="geometry" />
        </mxCell>
        <mxCell id="rBMd9Nk1FwRAyWW7uSOI-34" value="Cliente" style="text;html=1;align=center;verticalAlign=middle;resizable=0;points=[];autosize=1;strokeColor=none;fillColor=none;" vertex="1" parent="rBMd9Nk1FwRAyWW7uSOI-1">
          <mxGeometry x="-1090" y="432" width="60" height="30" as="geometry" />
        </mxCell>
        <mxCell id="rBMd9Nk1FwRAyWW7uSOI-35" style="edgeStyle=orthogonalEdgeStyle;rounded=0;orthogonalLoop=1;jettySize=auto;html=1;" edge="1" parent="rBMd9Nk1FwRAyWW7uSOI-1" source="rBMd9Nk1FwRAyWW7uSOI-36" target="rBMd9Nk1FwRAyWW7uSOI-39">
          <mxGeometry relative="1" as="geometry" />
        </mxCell>
        <mxCell id="rBMd9Nk1FwRAyWW7uSOI-36" value="" style="sketch=0;points=[[0,0,0],[0.25,0,0],[0.5,0,0],[0.75,0,0],[1,0,0],[0,1,0],[0.25,1,0],[0.5,1,0],[0.75,1,0],[1,1,0],[0,0.25,0],[0,0.5,0],[0,0.75,0],[1,0.25,0],[1,0.5,0],[1,0.75,0]];outlineConnect=0;fontColor=#232F3E;fillColor=#E7157B;strokeColor=#ffffff;dashed=0;verticalLabelPosition=bottom;verticalAlign=top;align=center;html=1;fontSize=12;fontStyle=0;aspect=fixed;shape=mxgraph.aws4.resourceIcon;resIcon=mxgraph.aws4.api_gateway;" vertex="1" parent="rBMd9Nk1FwRAyWW7uSOI-1">
          <mxGeometry x="-910" y="314" width="78" height="78" as="geometry" />
        </mxCell>
        <mxCell id="rBMd9Nk1FwRAyWW7uSOI-37" value="Gateway Cliente" style="text;html=1;align=center;verticalAlign=middle;resizable=0;points=[];autosize=1;strokeColor=none;fillColor=none;" vertex="1" parent="rBMd9Nk1FwRAyWW7uSOI-1">
          <mxGeometry x="-926" y="402" width="110" height="30" as="geometry" />
        </mxCell>
        <mxCell id="rBMd9Nk1FwRAyWW7uSOI-38" style="edgeStyle=orthogonalEdgeStyle;rounded=0;orthogonalLoop=1;jettySize=auto;html=1;" edge="1" parent="rBMd9Nk1FwRAyWW7uSOI-1" source="rBMd9Nk1FwRAyWW7uSOI-39" target="rBMd9Nk1FwRAyWW7uSOI-47">
          <mxGeometry relative="1" as="geometry" />
        </mxCell>
        <mxCell id="rBMd9Nk1FwRAyWW7uSOI-39" value="" style="sketch=0;outlineConnect=0;fontColor=#232F3E;gradientColor=none;fillColor=#8C4FFF;strokeColor=none;dashed=0;verticalLabelPosition=bottom;verticalAlign=top;align=center;html=1;fontSize=12;fontStyle=0;aspect=fixed;pointerEvents=1;shape=mxgraph.aws4.network_load_balancer;" vertex="1" parent="rBMd9Nk1FwRAyWW7uSOI-1">
          <mxGeometry x="-689" y="304" width="78" height="78" as="geometry" />
        </mxCell>
        <mxCell id="rBMd9Nk1FwRAyWW7uSOI-40" style="edgeStyle=orthogonalEdgeStyle;rounded=0;orthogonalLoop=1;jettySize=auto;html=1;" edge="1" parent="rBMd9Nk1FwRAyWW7uSOI-1" source="rBMd9Nk1FwRAyWW7uSOI-41" target="rBMd9Nk1FwRAyWW7uSOI-24">
          <mxGeometry relative="1" as="geometry" />
        </mxCell>
        <mxCell id="kj0p4XOiw0zuauQpiWQF-1" style="edgeStyle=orthogonalEdgeStyle;rounded=0;orthogonalLoop=1;jettySize=auto;html=1;" edge="1" parent="rBMd9Nk1FwRAyWW7uSOI-1" source="rBMd9Nk1FwRAyWW7uSOI-41" target="kj0p4XOiw0zuauQpiWQF-0">
          <mxGeometry relative="1" as="geometry" />
        </mxCell>
        <mxCell id="kj0p4XOiw0zuauQpiWQF-2" value="Notifica o SNS em caso de falha" style="edgeLabel;html=1;align=center;verticalAlign=middle;resizable=0;points=[];" vertex="1" connectable="0" parent="kj0p4XOiw0zuauQpiWQF-1">
          <mxGeometry x="-0.6387" y="6" relative="1" as="geometry">
            <mxPoint y="-1" as="offset" />
          </mxGeometry>
        </mxCell>
        <mxCell id="rBMd9Nk1FwRAyWW7uSOI-41" value="" style="sketch=0;points=[[0,0,0],[0.25,0,0],[0.5,0,0],[0.75,0,0],[1,0,0],[0,1,0],[0.25,1,0],[0.5,1,0],[0.75,1,0],[1,1,0],[0,0.25,0],[0,0.5,0],[0,0.75,0],[1,0.25,0],[1,0.5,0],[1,0.75,0]];outlineConnect=0;fontColor=#232F3E;fillColor=#ED7100;strokeColor=#ffffff;dashed=0;verticalLabelPosition=bottom;verticalAlign=top;align=center;html=1;fontSize=12;fontStyle=0;aspect=fixed;shape=mxgraph.aws4.resourceIcon;resIcon=mxgraph.aws4.lambda;" vertex="1" parent="rBMd9Nk1FwRAyWW7uSOI-1">
          <mxGeometry x="10" y="346" width="78" height="78" as="geometry" />
        </mxCell>
        <mxCell id="rBMd9Nk1FwRAyWW7uSOI-42" value="Lambda GO Cadastra Produtos Disponíveis" style="text;html=1;align=center;verticalAlign=middle;resizable=0;points=[];autosize=1;strokeColor=none;fillColor=none;" vertex="1" parent="rBMd9Nk1FwRAyWW7uSOI-1">
          <mxGeometry x="-92" y="442" width="260" height="30" as="geometry" />
        </mxCell>
        <mxCell id="rBMd9Nk1FwRAyWW7uSOI-43" style="edgeStyle=orthogonalEdgeStyle;rounded=0;orthogonalLoop=1;jettySize=auto;html=1;" edge="1" parent="rBMd9Nk1FwRAyWW7uSOI-1" source="rBMd9Nk1FwRAyWW7uSOI-44" target="rBMd9Nk1FwRAyWW7uSOI-59">
          <mxGeometry relative="1" as="geometry" />
        </mxCell>
        <mxCell id="rBMd9Nk1FwRAyWW7uSOI-44" value="" style="outlineConnect=0;dashed=0;verticalLabelPosition=bottom;verticalAlign=top;align=center;html=1;shape=mxgraph.aws3.dynamo_db;fillColor=#2E73B8;gradientColor=none;" vertex="1" parent="rBMd9Nk1FwRAyWW7uSOI-1">
          <mxGeometry x="24" y="560" width="72" height="81" as="geometry" />
        </mxCell>
        <mxCell id="rBMd9Nk1FwRAyWW7uSOI-45" style="edgeStyle=orthogonalEdgeStyle;rounded=0;orthogonalLoop=1;jettySize=auto;html=1;entryX=0.5;entryY=0;entryDx=0;entryDy=0;entryPerimeter=0;" edge="1" parent="rBMd9Nk1FwRAyWW7uSOI-1" source="rBMd9Nk1FwRAyWW7uSOI-41" target="rBMd9Nk1FwRAyWW7uSOI-44">
          <mxGeometry relative="1" as="geometry" />
        </mxCell>
        <mxCell id="rBMd9Nk1FwRAyWW7uSOI-46" style="edgeStyle=orthogonalEdgeStyle;rounded=0;orthogonalLoop=1;jettySize=auto;html=1;" edge="1" parent="rBMd9Nk1FwRAyWW7uSOI-1" source="rBMd9Nk1FwRAyWW7uSOI-47" target="rBMd9Nk1FwRAyWW7uSOI-44">
          <mxGeometry relative="1" as="geometry" />
        </mxCell>
        <mxCell id="rBMd9Nk1FwRAyWW7uSOI-47" value="" style="sketch=0;points=[[0,0,0],[0.25,0,0],[0.5,0,0],[0.75,0,0],[1,0,0],[0,1,0],[0.25,1,0],[0.5,1,0],[0.75,1,0],[1,1,0],[0,0.25,0],[0,0.5,0],[0,0.75,0],[1,0.25,0],[1,0.5,0],[1,0.75,0]];outlineConnect=0;fontColor=#232F3E;fillColor=#ED7100;strokeColor=#ffffff;dashed=0;verticalLabelPosition=bottom;verticalAlign=top;align=center;html=1;fontSize=12;fontStyle=0;aspect=fixed;shape=mxgraph.aws4.resourceIcon;resIcon=mxgraph.aws4.ecs;" vertex="1" parent="rBMd9Nk1FwRAyWW7uSOI-1">
          <mxGeometry x="-440" y="511" width="78" height="78" as="geometry" />
        </mxCell>
        <mxCell id="rBMd9Nk1FwRAyWW7uSOI-48" value="API de Produtos Disponiveis&lt;div&gt;Clean Arch&lt;/div&gt;" style="text;html=1;align=center;verticalAlign=middle;resizable=0;points=[];autosize=1;strokeColor=none;fillColor=none;" vertex="1" parent="rBMd9Nk1FwRAyWW7uSOI-1">
          <mxGeometry x="-491" y="590" width="180" height="40" as="geometry" />
        </mxCell>
        <mxCell id="rBMd9Nk1FwRAyWW7uSOI-49" value="" style="sketch=0;points=[[0,0,0],[0.25,0,0],[0.5,0,0],[0.75,0,0],[1,0,0],[0,1,0],[0.25,1,0],[0.5,1,0],[0.75,1,0],[1,1,0],[0,0.25,0],[0,0.5,0],[0,0.75,0],[1,0.25,0],[1,0.5,0],[1,0.75,0]];outlineConnect=0;fontColor=#232F3E;fillColor=#ED7100;strokeColor=#ffffff;dashed=0;verticalLabelPosition=bottom;verticalAlign=top;align=center;html=1;fontSize=12;fontStyle=0;aspect=fixed;shape=mxgraph.aws4.resourceIcon;resIcon=mxgraph.aws4.lambda;" vertex="1" parent="rBMd9Nk1FwRAyWW7uSOI-1">
          <mxGeometry x="300" y="870" width="100" height="100" as="geometry" />
        </mxCell>
        <mxCell id="rBMd9Nk1FwRAyWW7uSOI-50" style="edgeStyle=orthogonalEdgeStyle;rounded=0;orthogonalLoop=1;jettySize=auto;html=1;entryX=1;entryY=0.75;entryDx=0;entryDy=0;entryPerimeter=0;" edge="1" parent="rBMd9Nk1FwRAyWW7uSOI-1" source="rBMd9Nk1FwRAyWW7uSOI-25" target="rBMd9Nk1FwRAyWW7uSOI-49">
          <mxGeometry relative="1" as="geometry" />
        </mxCell>
        <mxCell id="rBMd9Nk1FwRAyWW7uSOI-51" style="edgeStyle=orthogonalEdgeStyle;rounded=0;orthogonalLoop=1;jettySize=auto;html=1;" edge="1" parent="rBMd9Nk1FwRAyWW7uSOI-1" source="rBMd9Nk1FwRAyWW7uSOI-52" target="rBMd9Nk1FwRAyWW7uSOI-53">
          <mxGeometry relative="1" as="geometry" />
        </mxCell>
        <mxCell id="rBMd9Nk1FwRAyWW7uSOI-52" value="Lambda GO Auditoria" style="text;html=1;align=center;verticalAlign=middle;resizable=0;points=[];autosize=1;strokeColor=none;fillColor=none;" vertex="1" parent="rBMd9Nk1FwRAyWW7uSOI-1">
          <mxGeometry x="270" y="978" width="140" height="30" as="geometry" />
        </mxCell>
        <mxCell id="rBMd9Nk1FwRAyWW7uSOI-53" value="" style="sketch=0;points=[[0,0,0],[0.25,0,0],[0.5,0,0],[0.75,0,0],[1,0,0],[0,1,0],[0.25,1,0],[0.5,1,0],[0.75,1,0],[1,1,0],[0,0.25,0],[0,0.5,0],[0,0.75,0],[1,0.25,0],[1,0.5,0],[1,0.75,0]];outlineConnect=0;fontColor=#232F3E;fillColor=#C925D1;strokeColor=#ffffff;dashed=0;verticalLabelPosition=bottom;verticalAlign=top;align=center;html=1;fontSize=12;fontStyle=0;aspect=fixed;shape=mxgraph.aws4.resourceIcon;resIcon=mxgraph.aws4.documentdb_with_mongodb_compatibility;" vertex="1" parent="rBMd9Nk1FwRAyWW7uSOI-1">
          <mxGeometry x="322" y="1140" width="78" height="78" as="geometry" />
        </mxCell>
        <mxCell id="rBMd9Nk1FwRAyWW7uSOI-54" value="Salva no banco até ter a confirmação de que foi persistido na base do cliente" style="text;html=1;align=center;verticalAlign=middle;resizable=0;points=[];autosize=1;strokeColor=none;fillColor=none;" vertex="1" parent="rBMd9Nk1FwRAyWW7uSOI-1">
          <mxGeometry x="195" y="1068" width="430" height="30" as="geometry" />
        </mxCell>
        <mxCell id="rBMd9Nk1FwRAyWW7uSOI-55" style="edgeStyle=orthogonalEdgeStyle;rounded=0;orthogonalLoop=1;jettySize=auto;html=1;" edge="1" parent="rBMd9Nk1FwRAyWW7uSOI-1" source="rBMd9Nk1FwRAyWW7uSOI-56" target="rBMd9Nk1FwRAyWW7uSOI-3">
          <mxGeometry relative="1" as="geometry" />
        </mxCell>
        <mxCell id="rBMd9Nk1FwRAyWW7uSOI-56" value="" style="sketch=0;points=[[0,0,0],[0.25,0,0],[0.5,0,0],[0.75,0,0],[1,0,0],[0,1,0],[0.25,1,0],[0.5,1,0],[0.75,1,0],[1,1,0],[0,0.25,0],[0,0.5,0],[0,0.75,0],[1,0.25,0],[1,0.5,0],[1,0.75,0]];outlineConnect=0;fontColor=#232F3E;fillColor=#DD344C;strokeColor=#ffffff;dashed=0;verticalLabelPosition=bottom;verticalAlign=top;align=center;html=1;fontSize=12;fontStyle=0;aspect=fixed;shape=mxgraph.aws4.resourceIcon;resIcon=mxgraph.aws4.cognito;" vertex="1" parent="rBMd9Nk1FwRAyWW7uSOI-1">
          <mxGeometry x="-170" y="80" width="78" height="78" as="geometry" />
        </mxCell>
        <mxCell id="rBMd9Nk1FwRAyWW7uSOI-57" style="edgeStyle=orthogonalEdgeStyle;rounded=0;orthogonalLoop=1;jettySize=auto;html=1;entryX=0;entryY=0.75;entryDx=0;entryDy=0;entryPerimeter=0;" edge="1" parent="rBMd9Nk1FwRAyWW7uSOI-1" source="rBMd9Nk1FwRAyWW7uSOI-4" target="rBMd9Nk1FwRAyWW7uSOI-56">
          <mxGeometry relative="1" as="geometry" />
        </mxCell>
        <mxCell id="rBMd9Nk1FwRAyWW7uSOI-58" value="Autenticação" style="text;html=1;align=center;verticalAlign=middle;resizable=0;points=[];autosize=1;strokeColor=none;fillColor=none;" vertex="1" parent="rBMd9Nk1FwRAyWW7uSOI-1">
          <mxGeometry x="-170" y="168" width="90" height="30" as="geometry" />
        </mxCell>
        <mxCell id="rBMd9Nk1FwRAyWW7uSOI-59" value="" style="sketch=0;outlineConnect=0;fontColor=#232F3E;gradientColor=none;fillColor=#C925D1;strokeColor=none;dashed=0;verticalLabelPosition=bottom;verticalAlign=top;align=center;html=1;fontSize=12;fontStyle=0;aspect=fixed;pointerEvents=1;shape=mxgraph.aws4.dynamodb_stream;" vertex="1" parent="rBMd9Nk1FwRAyWW7uSOI-1">
          <mxGeometry x="-90" y="750" width="78" height="78" as="geometry" />
        </mxCell>
        <mxCell id="rBMd9Nk1FwRAyWW7uSOI-60" style="edgeStyle=orthogonalEdgeStyle;rounded=0;orthogonalLoop=1;jettySize=auto;html=1;" edge="1" parent="rBMd9Nk1FwRAyWW7uSOI-1" source="rBMd9Nk1FwRAyWW7uSOI-61" target="rBMd9Nk1FwRAyWW7uSOI-59">
          <mxGeometry relative="1" as="geometry" />
        </mxCell>
        <mxCell id="rBMd9Nk1FwRAyWW7uSOI-61" value="" style="sketch=0;points=[[0,0,0],[0.25,0,0],[0.5,0,0],[0.75,0,0],[1,0,0],[0,1,0],[0.25,1,0],[0.5,1,0],[0.75,1,0],[1,1,0],[0,0.25,0],[0,0.5,0],[0,0.75,0],[1,0.25,0],[1,0.5,0],[1,0.75,0]];outlineConnect=0;fontColor=#232F3E;fillColor=#ED7100;strokeColor=#ffffff;dashed=0;verticalLabelPosition=bottom;verticalAlign=top;align=center;html=1;fontSize=12;fontStyle=0;aspect=fixed;shape=mxgraph.aws4.resourceIcon;resIcon=mxgraph.aws4.lambda;" vertex="1" parent="rBMd9Nk1FwRAyWW7uSOI-1">
          <mxGeometry x="-280" y="954" width="78" height="78" as="geometry" />
        </mxCell>
        <mxCell id="rBMd9Nk1FwRAyWW7uSOI-62" value="Lambda GO Orquestradora" style="text;html=1;align=center;verticalAlign=middle;resizable=0;points=[];autosize=1;strokeColor=none;fillColor=none;" vertex="1" parent="rBMd9Nk1FwRAyWW7uSOI-1">
          <mxGeometry x="-325" y="1038" width="170" height="30" as="geometry" />
        </mxCell>
        <mxCell id="rBMd9Nk1FwRAyWW7uSOI-63" style="edgeStyle=orthogonalEdgeStyle;rounded=0;orthogonalLoop=1;jettySize=auto;html=1;entryX=0;entryY=0.75;entryDx=0;entryDy=0;entryPerimeter=0;" edge="1" parent="rBMd9Nk1FwRAyWW7uSOI-1" source="rBMd9Nk1FwRAyWW7uSOI-61" target="rBMd9Nk1FwRAyWW7uSOI-53">
          <mxGeometry relative="1" as="geometry" />
        </mxCell>
        <mxCell id="rBMd9Nk1FwRAyWW7uSOI-64" value="Qnd o produto é cadastrado, pega no documentDB a auditoria e manda para o S3" style="edgeLabel;html=1;align=center;verticalAlign=middle;resizable=0;points=[];" vertex="1" connectable="0" parent="rBMd9Nk1FwRAyWW7uSOI-63">
          <mxGeometry x="-0.1267" y="1" relative="1" as="geometry">
            <mxPoint as="offset" />
          </mxGeometry>
        </mxCell>
        <mxCell id="rBMd9Nk1FwRAyWW7uSOI-65" value="" style="sketch=0;points=[[0,0,0],[0.25,0,0],[0.5,0,0],[0.75,0,0],[1,0,0],[0,1,0],[0.25,1,0],[0.5,1,0],[0.75,1,0],[1,1,0],[0,0.25,0],[0,0.5,0],[0,0.75,0],[1,0.25,0],[1,0.5,0],[1,0.75,0]];outlineConnect=0;fontColor=#232F3E;fillColor=#7AA116;strokeColor=#ffffff;dashed=0;verticalLabelPosition=bottom;verticalAlign=top;align=center;html=1;fontSize=12;fontStyle=0;aspect=fixed;shape=mxgraph.aws4.resourceIcon;resIcon=mxgraph.aws4.glacier;" vertex="1" parent="rBMd9Nk1FwRAyWW7uSOI-1">
          <mxGeometry x="-680" y="960" width="78" height="78" as="geometry" />
        </mxCell>
        <mxCell id="rBMd9Nk1FwRAyWW7uSOI-66" style="edgeStyle=orthogonalEdgeStyle;rounded=0;orthogonalLoop=1;jettySize=auto;html=1;entryX=1;entryY=0.5;entryDx=0;entryDy=0;entryPerimeter=0;" edge="1" parent="rBMd9Nk1FwRAyWW7uSOI-1" source="rBMd9Nk1FwRAyWW7uSOI-61" target="rBMd9Nk1FwRAyWW7uSOI-65">
          <mxGeometry relative="1" as="geometry" />
        </mxCell>
        <mxCell id="rBMd9Nk1FwRAyWW7uSOI-67" value="&lt;div&gt;Vale usar o ECHO aqui?&lt;/div&gt;&lt;div&gt;Ou mantém o Gin?&lt;/div&gt;&lt;div&gt;Usar o CHI?&lt;/div&gt;" style="text;html=1;align=center;verticalAlign=middle;resizable=0;points=[];autosize=1;strokeColor=none;fillColor=none;" vertex="1" parent="rBMd9Nk1FwRAyWW7uSOI-1">
          <mxGeometry x="-590" y="520" width="150" height="60" as="geometry" />
        </mxCell>
        <mxCell id="rBMd9Nk1FwRAyWW7uSOI-68" value="Dynamo Produtos a serem exibidos" style="text;html=1;align=center;verticalAlign=middle;resizable=0;points=[];autosize=1;strokeColor=none;fillColor=none;" vertex="1" parent="rBMd9Nk1FwRAyWW7uSOI-1">
          <mxGeometry x="-42" y="650" width="210" height="30" as="geometry" />
        </mxCell>
        <mxCell id="rBMd9Nk1FwRAyWW7uSOI-69" value="Stream para confirmar cadastro de produto" style="text;html=1;align=center;verticalAlign=middle;resizable=0;points=[];autosize=1;strokeColor=none;fillColor=none;" vertex="1" parent="rBMd9Nk1FwRAyWW7uSOI-1">
          <mxGeometry x="-176" y="840" width="250" height="30" as="geometry" />
        </mxCell>
        <mxCell id="kj0p4XOiw0zuauQpiWQF-0" value="" style="sketch=0;points=[[0,0,0],[0.25,0,0],[0.5,0,0],[0.75,0,0],[1,0,0],[0,1,0],[0.25,1,0],[0.5,1,0],[0.75,1,0],[1,1,0],[0,0.25,0],[0,0.5,0],[0,0.75,0],[1,0.25,0],[1,0.5,0],[1,0.75,0]];outlineConnect=0;fontColor=#232F3E;fillColor=#E7157B;strokeColor=#ffffff;dashed=0;verticalLabelPosition=bottom;verticalAlign=top;align=center;html=1;fontSize=12;fontStyle=0;aspect=fixed;shape=mxgraph.aws4.resourceIcon;resIcon=mxgraph.aws4.sns;" vertex="1" parent="rBMd9Nk1FwRAyWW7uSOI-1">
          <mxGeometry x="10" y="-280" width="78" height="78" as="geometry" />
        </mxCell>
        <mxCell id="kj0p4XOiw0zuauQpiWQF-6" style="edgeStyle=orthogonalEdgeStyle;rounded=0;orthogonalLoop=1;jettySize=auto;html=1;" edge="1" parent="rBMd9Nk1FwRAyWW7uSOI-1" source="kj0p4XOiw0zuauQpiWQF-3" target="rBMd9Nk1FwRAyWW7uSOI-9">
          <mxGeometry relative="1" as="geometry" />
        </mxCell>
        <mxCell id="kj0p4XOiw0zuauQpiWQF-7" value="Recebe a mensagem do saga sqs e deleta do banco" style="edgeLabel;html=1;align=center;verticalAlign=middle;resizable=0;points=[];" vertex="1" connectable="0" parent="kj0p4XOiw0zuauQpiWQF-6">
          <mxGeometry x="0.3472" y="4" relative="1" as="geometry">
            <mxPoint as="offset" />
          </mxGeometry>
        </mxCell>
        <mxCell id="kj0p4XOiw0zuauQpiWQF-3" value="" style="sketch=0;points=[[0,0,0],[0.25,0,0],[0.5,0,0],[0.75,0,0],[1,0,0],[0,1,0],[0.25,1,0],[0.5,1,0],[0.75,1,0],[1,1,0],[0,0.25,0],[0,0.5,0],[0,0.75,0],[1,0.25,0],[1,0.5,0],[1,0.75,0]];outlineConnect=0;fontColor=#232F3E;fillColor=#E7157B;strokeColor=#ffffff;dashed=0;verticalLabelPosition=bottom;verticalAlign=top;align=center;html=1;fontSize=12;fontStyle=0;aspect=fixed;shape=mxgraph.aws4.resourceIcon;resIcon=mxgraph.aws4.sqs;" vertex="1" parent="rBMd9Nk1FwRAyWW7uSOI-1">
          <mxGeometry x="311" y="-280" width="78" height="78" as="geometry" />
        </mxCell>
        <mxCell id="kj0p4XOiw0zuauQpiWQF-4" style="edgeStyle=orthogonalEdgeStyle;rounded=0;orthogonalLoop=1;jettySize=auto;html=1;entryX=0;entryY=0.5;entryDx=0;entryDy=0;entryPerimeter=0;" edge="1" parent="rBMd9Nk1FwRAyWW7uSOI-1" source="kj0p4XOiw0zuauQpiWQF-0" target="kj0p4XOiw0zuauQpiWQF-3">
          <mxGeometry relative="1" as="geometry" />
        </mxCell>
        <mxCell id="kj0p4XOiw0zuauQpiWQF-5" value="Saga Sqs" style="text;html=1;align=center;verticalAlign=middle;resizable=0;points=[];autosize=1;strokeColor=none;fillColor=none;" vertex="1" parent="rBMd9Nk1FwRAyWW7uSOI-1">
          <mxGeometry x="309" y="-192" width="80" height="30" as="geometry" />
        </mxCell>
        <mxCell id="kj0p4XOiw0zuauQpiWQF-8" value="É possível ter ttl automatico?" style="text;html=1;align=center;verticalAlign=middle;resizable=0;points=[];autosize=1;strokeColor=none;fillColor=none;" vertex="1" parent="rBMd9Nk1FwRAyWW7uSOI-1">
          <mxGeometry x="271" y="1258" width="180" height="30" as="geometry" />
        </mxCell>
        <mxCell id="kj0p4XOiw0zuauQpiWQF-9" value="DocumentDB para salvar auditoria" style="text;html=1;align=center;verticalAlign=middle;resizable=0;points=[];autosize=1;strokeColor=none;fillColor=none;" vertex="1" parent="rBMd9Nk1FwRAyWW7uSOI-1">
          <mxGeometry x="256" y="1228" width="210" height="30" as="geometry" />
        </mxCell>
        <mxCell id="kj0p4XOiw0zuauQpiWQF-10" value="SNS Tópico Saga" style="text;html=1;align=center;verticalAlign=middle;resizable=0;points=[];autosize=1;strokeColor=none;fillColor=none;" vertex="1" parent="rBMd9Nk1FwRAyWW7uSOI-1">
          <mxGeometry x="-11" y="-330" width="120" height="30" as="geometry" />
        </mxCell>
      </root>
    </mxGraphModel>
  </diagram>
</mxfile>
